<?xml version="1.0" encoding="UTF-8"?>
<svg id="Layer_7" data-name="Layer 7" xmlns="http://www.w3.org/2000/svg" viewBox="0 0 225 225">
  <defs>
    <style>
      .cls-1 {
        fill: none;
        stroke: #fff;
        stroke-miterlimit: 10;
        stroke-width: 2px;
      }
    </style>
  </defs>
  <g id="ARC">
    <path class="cls-1" d="M7.96,140.27c-1.76-6.81-2.85-13.76-3.26-20.78-.15-2.08,1.82-3.81,3.87-3.39l35.42,6.79c5.96,1.19,11.73-3.28,12.08-9.34v-1.24c-.3-6.07-6.05-10.57-12.01-9.43l-35.47,6.53c-2.05.4-4.01-1.33-3.84-3.42.46-7.01,1.6-13.96,3.41-20.76l.33-1.2c5-17.97,14.53-34.35,27.69-47.56l.88-.87c5.02-4.92,10.5-9.35,16.37-13.21,1.73-1.17,4.21-.33,4.87,1.65,0,0,11.83,34.07,11.83,34.07,1.95,5.75,8.71,8.51,14.13,5.79l1.08-.62c5.1-3.3,6.13-10.52,2.16-15.12l-23.39-27.45c-1.37-1.57-.85-4.14,1.04-5.04,6.3-3.11,12.89-5.59,19.68-7.43l1.2-.32c18.06-4.66,37.01-4.59,55.04.2l1.2.33c6.77,1.88,13.34,4.42,19.62,7.57,1.88.91,2.39,3.48,1,5.04l-23.59,27.28c-4.01,4.57-3.02,11.8,2.05,15.13l1.07.62c5.41,2.77,12.18.05,14.17-5.69l12.07-33.98c.68-1.98,3.16-2.81,4.88-1.62,5.84,3.91,11.29,8.37,16.27,13.33l.87.88c13.06,13.31,22.48,29.76,27.34,47.76l.32,1.2c1.76,6.81,2.85,13.76,3.26,20.78.15,2.08-1.82,3.81-3.87,3.39l-35.42-6.79c-5.96-1.19-11.73,3.28-12.08,9.34v1.24c.3,6.07,6.05,10.57,12.01,9.43l35.47-6.53c2.05-.4,4.01,1.33,3.84,3.42-.46,7.01-1.6,13.96-3.41,20.76l-.33,1.2c-5,17.97-14.53,34.35-27.69,47.56l-.88.87c-5.02,4.92-10.5,9.35-16.37,13.21-1.73,1.17-4.21.33-4.87-1.65l-11.83-34.07c-1.95-5.75-8.71-8.51-14.13-5.79l-1.08.62c-5.1,3.3-6.13,10.52-2.16,15.12l23.39,27.45c1.37,1.57.85,4.14-1.04,5.04-6.3,3.11-12.89,5.59-19.68,7.43l-1.2.32c-18.06,4.66-37.01,4.59-55.04-.2l-1.2-.33c-6.77-1.88-13.34-4.42-19.62-7.57-1.88-.91-2.39-3.48-1-5.04l23.59-27.28c4.01-4.57,3.02-11.8-2.05-15.13l-1.07-.62c-5.41-2.77-12.18-.05-14.17,5.69l-12.07,33.98c-.68,1.98-3.16,2.81-4.88,1.62-5.84-3.91-11.29-8.37-16.27-13.33l-.87-.88c-13.06-13.31-22.48-29.76-27.34-47.76"/>
  </g>
  <g id="ARC-2" data-name="ARC">
    <path class="cls-1" d="M134.12,102.86c4.08,8.09,5.66,13.68,5.37,24.52-.07,1.27-.75,2.43-1.82,3.12-9.61,5.78-15.24,7-23.98,7.43h-1.24c-9.05-.51-14.67-1.94-23.92-7.61-1.07-.7-1.73-1.86-1.8-3.14-.2-11.21,1.56-16.7,5.55-24.48l.62-1.07c4.96-7.58,9.02-11.74,18.55-16.91,1.14-.57,2.48-.57,3.61.01,9.81,5.43,13.68,9.7,18.43,17.05"/>
  </g>
</svg>