<?xml version="1.0" encoding="UTF-8"?>
<svg xmlns="http://www.w3.org/2000/svg" xmlns:xlink="http://www.w3.org/1999/xlink" viewBox="0 0 3059.15 1094.37">
  <defs>
    <style>
      .cls-1 {
        fill: #a3a5a8;
      }

      .cls-1, .cls-2, .cls-3, .cls-4, .cls-5 {
        stroke-width: 0px;
      }

      .cls-6 {
        stroke: #fff;
        stroke-miterlimit: 10;
        stroke-width: 8px;
      }

      .cls-6, .cls-3 {
        fill: none;
      }

      .cls-2 {
        fill: #cc2127;
      }

      .cls-4 {
        fill: #a3a4a7;
      }

      .cls-5 {
        fill: #fff;
      }
    </style>
    <symbol id="Arrow_26" data-name="Arrow 26" viewBox="0 0 45.72 26.28">
      <g>
        <rect class="cls-3" width="45.72" height="26.28"/>
        <polygon class="cls-5" points="0 19.48 22.93 19.48 22.93 26.28 45.72 13.14 22.93 0 22.93 6.8 0 6.8 0 19.48"/>
      </g>
    </symbol>
  </defs>
  <g id="spools">
    <path class="cls-5" d="M2813.46,615.31c.76-.89,1.51-1.78,2.27-2.66,2.68-3.08,4.26-6.59,4.57-10.61,1.04-4.44-.57-8.23-3.21-11.71-2.27-2.98-4.8-5.66-9.17-5.33-.08,0-.16-.11-.31-.23.14-1.29.26-2.46-1.39-3.35-7.39-3.99-15.22-6.88-23.36-9-4.68-1.22-9.42-2.23-14.13-3.33-3.03-.46-6.05-.98-9.09-1.36-3.5-.43-7.02-.79-10.54-1.04-.69-.05-1.62.39-2.11.9-1.2,1.24-2.2,2.66-3.31,3.99-.91,1.08-1.77,2.28-3.46,2.28-3.84,1-7.68.72-11.5-.1-.29-.06-.52-.3-.78-.46-1.32-.63-.79-1.27.1-1.67,1.08-.48,2.26-.76,3.38-1.16,3.96-1.38,7.92-2.77,11.89-4.16-.68-.19-1.35-.51-2.05-.56-5.06-.35-10.13-.64-15.2-.95h-.95c-4.85.02-9.71-.05-14.56.1-5.63.17-11.24.55-16.86.82-.62.03-1.25,0-1.88-.01-.21.02-.42.04-.63.05-.19.08-.37.2-.57.22-4.46.44-8.92.83-13.37,1.34-.7.08-1.33.71-1.99,1.09.54.53.98,1.32,1.64,1.55,2.24.81,4.57,1.43,6.86,2.12,1.56.47,3.11.95,4.66,1.42-2.99.78-5.93,1.12-8.83,1.71-1.81.37-3.03-.22-4.09-1.5-1.14-1.37-2.26-2.76-3.46-4.09-.34-.38-.91-.79-1.4-.81-1.45-.06-2.95-.1-4.37.16-5.83,1.08-11.64,2.28-17.46,3.44-5.33,1.62-10.69,3.14-15.98,4.87-6.46,2.1-12.63,4.83-18.48,8.23-1.56.91-3.3,1.73-2.48,4.02.02.06-.1.16-.22.35-2.79-.06-5.08.95-7.07,3.04-5.44,5.72-7.35,12.04-4.18,19.44,1.26,2.93,3.16,5.43,5.54,7.61.52.48,1.2.95.43,1.75-.5.82-1.02,1.64-1.51,2.47-3.21,5.45-4.78,11.23-3.77,17.52,1.65,10.29,7.45,18.12,15.87,24.26,3.53,2.58,7.37,4.77,11.06,7.13,3.57,1.58,7.07,3.28,10.7,4.7,10.9,4.25,22.23,6.99,33.83,8.79,9.88,1.53,19.82,2.35,29.8,2.5,5.85.08,11.73-.06,17.55-.55,8.37-.71,16.75-1.52,25.04-2.85,13.35-2.13,26.26-5.83,38.62-11.23,2.37-1.03,4.64-2.27,6.95-3.41,2.6-1.43,5.2-2.86,7.8-4.28.33-.29.66-.58,1-.87,2.71-2.15,5.43-4.29,8.15-6.43,2.29-2.45,4.78-4.75,6.82-7.39,2.53-3.26,4.49-6.88,5.15-11,.28-.92.56-1.84.84-2.76.14-1.2.27-2.4.41-3.6.01-.91.03-1.82.04-2.72-.61-6.29-2.99-11.86-7.23-16.68ZM2697.18,591.21c.27.59.6,1.16.9,1.75-.69-.32-1.82-.49-1.99-.97-.36-1.03-.33-2.22-.26-3.34.05-.77.39-1.54.67-2.28.31-.82,2.45-.99,3.2-.27,1.75,1.65,2.27,3.8,2.49,6.02.04.39-.61,1.11-1.05,1.21-.77.17-1.63-.02-2.46-.05-.05-1.54-.1-3.09-.15-4.89-1.7.82-1.87,1.73-1.36,2.84ZM2684.12,589.21c1.28-1.36,2.58-2.79,4.14-3.8,1.75-1.14,3.8-1.84,5.73-2.74,1.98-.62,3.93-1.29,5.94-1.82.43-.11,1,.25,1.51.39-.31.39-.55.99-.95,1.14-2.14.76-4.33,1.41-6.5,2.11-3.92,1.48-7.47,3.48-9.95,6.96-.17-.1-.34-.2-.52-.3.19-.65.18-1.48.61-1.94ZM2653.4,587.16c-1.33,2.65-3.1,3.72-5.55,3.69-5.37-.07-10.73-.13-16.1-.25-4.39-.09-8.78-.26-13.16-.38-.56-.02-1.13,0-1.69,0-.02-.17-.03-.34-.05-.51,12.09-.7,24.13-2.23,36.56-2.55ZM2607.28,638.89c-.01-1.49-.03-2.98-.04-4.47,1.27-3.44,2.53-6.89,3.8-10.34,3.89,1.98,7.75,4.04,11.7,5.91,1.31.62,2.87.77,4.32,1.14,3.21-.27,5.6-2.03,7.84-4.03,2.64-1.88,5.27-3.77,7.92-5.64.37-.26.8-.44,1.2-.65.12,1.24.12,2.51.4,3.72.25,1.08-.16,1.58-1.11,1.94-4.95,1.87-9.35,4.98-14.62,6.16-2.37.88-4.74,1.79-7.14,2.64-3.38,1.2-6.74,2.45-10.17,3.46-1.27.38-2.73.13-4.11.16ZM2703.23,680.42c-2.36.49-4.86.62-7.28.51-4.53-.21-9.09-.51-13.58-1.13-7.08-.97-14.17-1.99-21.16-3.44-11.24-2.34-22.04-5.99-32.04-11.57-7.45-4.16-14.15-9.17-18.74-16.38-.38-.6-.68-1.25-1.01-1.87.32-.51.64-1.03.96-1.54.42-.29.84-.58,1.27-.87,4.52-.76,9.06-1.47,13.57-2.3,7.09-1.3,14.14-2.77,21.24-3.99,2.54-.44,5.17-.06,7.32,1.46,5.91,4.18,12.56,6.75,19.51,8.75,7.19,2.06,14.57,3.1,22,3.85,1.08.11,2.17.01,3.5.01,1,3.97,2.14,8.4,3.25,12.84,1.02,4.11,2.01,8.23,3.02,12.34.46,1.89.14,2.92-1.83,3.34ZM2801.82,585.13c0,.15.02.3.03.44-2.47.24-4.94.49-7.41.72-5.66.5-11.32,1.07-16.99,1.44-2.69.18-5.42-.02-8.13-.07-1.97-.03-2.62-1.67-3.71-2.98,12.12-.61,24.16.37,36.21.45ZM2715.25,586.27c.03-.53.73-1.01,1.12-1.52.29.46.82.93.81,1.39-.05,1.69-.25,3.39-.45,5.08-.05.4-.34.76-.52,1.15-.16-.02-.32-.04-.48-.06-.12-.36-.31-.72-.33-1.08-.09-1.65-.23-3.31-.15-4.96ZM2811.53,642.88c-2.42,4.23-5.55,7.93-9.29,11.12-10.87,9.29-23.84,14.75-37.5,18.93-11.05,3.37-22.38,5.45-33.86,6.8-3.37.4-6.75.67-10.14.93-2.12.16-4.08-.22-5.42-2.05-.09-.87-.43-1.78-.24-2.59,1.76-7.54,3.6-15.06,5.45-22.58.25-1,.69-1.96,1.33-2.89.03.27.05.55.08.82,3.35-.4,6.72-.7,10.05-1.23,6.36-.99,12.55-2.62,18.57-4.82.44-.16.84-.39,1.26-.59,2.1-.91,4.2-1.81,6.29-2.71,3.7-1.62,7.12-3.64,10.04-6.39,2.15-1.16,4.42-.92,6.72-.59,10.28,1.5,20.57,2.94,30.85,4.46,1.74.25,3.46.72,5.13,1.23,1.11.34,1.28,1.13.68,2.16ZM2812.16,634.66c-2.1-.26-4.18-.84-6.21-1.43-4.24-1.25-8.45-2.59-12.67-3.89-5.4-1.71-10.8-3.43-16.21-5.13-1.03-.33-1.36-.91-1.08-1.95.27-1,.36-2.05.55-3.26.49.25.91.42,1.27.67,2.72,1.87,5.39,3.81,8.17,5.59,1.29.82,2.79,1.32,4.2,1.96,1.56-.21,3.13-.42,4.7-.63,1.46-.7,2.93-1.41,4.4-2.11,2.93-1.74,5.86-3.48,8.78-5.22.52-.17,1.03-.34,1.54-.51,2.88,4.2,4.57,8.79,4.73,13.85.05,1.79-.35,2.3-2.17,2.08Z"/>
    <path class="cls-5" d="M2030.59,613.39c.73-.89,1.45-1.78,2.19-2.66,2.58-3.08,4.11-6.59,4.4-10.61,1-4.44-.55-8.23-3.1-11.71-2.19-2.98-4.62-5.66-8.84-5.33-.07,0-.15-.11-.3-.23.13-1.29.25-2.46-1.34-3.35-7.12-3.99-14.66-6.88-22.51-9-4.51-1.22-9.08-2.23-13.61-3.33-2.92-.46-5.83-.98-8.76-1.36-3.38-.43-6.77-.79-10.16-1.04-.67-.05-1.56.39-2.04.9-1.16,1.24-2.12,2.66-3.19,3.99-.88,1.08-1.7,2.28-3.33,2.28-3.7,1-7.4.72-11.08-.1-.27-.06-.51-.3-.76-.46-1.27-.63-.76-1.27.1-1.67,1.04-.48,2.17-.76,3.26-1.16,3.82-1.38,7.64-2.77,11.46-4.16-.66-.19-1.31-.51-1.97-.56-4.88-.35-9.76-.64-14.65-.95h-.91c-4.68.02-9.36-.05-14.03.1-5.42.17-10.83.55-16.25.82-.6.03-1.2,0-1.81-.01-.2.02-.4.04-.6.05-.18.08-.36.2-.55.22-4.3.44-8.59.83-12.88,1.34-.67.08-1.28.71-1.92,1.09.52.53.95,1.32,1.58,1.55,2.16.81,4.4,1.43,6.61,2.12,1.5.47,3,.95,4.5,1.42-2.88.78-5.72,1.12-8.51,1.71-1.75.37-2.92-.22-3.95-1.5-1.1-1.37-2.18-2.76-3.33-4.09-.33-.38-.88-.79-1.35-.81-1.4-.06-2.84-.1-4.21.16-5.62,1.08-11.22,2.28-16.82,3.44-5.13,1.62-10.3,3.14-15.4,4.87-6.22,2.1-12.17,4.83-17.81,8.23-1.5.91-3.18,1.73-2.39,4.02.02.06-.09.16-.21.35-2.69-.06-4.9.95-6.82,3.04-5.24,5.72-7.08,12.04-4.03,19.44,1.21,2.93,3.04,5.43,5.34,7.61.5.48,1.16.95.41,1.75-.49.82-.99,1.64-1.46,2.47-3.1,5.45-4.6,11.23-3.63,17.52,1.59,10.29,7.18,18.12,15.29,24.26,3.4,2.58,7.1,4.77,10.66,7.13,3.44,1.58,6.82,3.28,10.31,4.7,10.5,4.25,21.42,6.99,32.6,8.79,9.52,1.53,19.1,2.35,28.72,2.5,5.64.08,11.3-.06,16.91-.55,8.06-.71,16.14-1.52,24.12-2.85,12.86-2.13,25.31-5.83,37.21-11.23,2.28-1.03,4.47-2.27,6.7-3.41,2.51-1.43,5.01-2.86,7.51-4.28.32-.29.64-.58.96-.87,2.62-2.15,5.23-4.29,7.85-6.43,2.21-2.45,4.61-4.75,6.57-7.39,2.43-3.26,4.33-6.88,4.96-11,.27-.92.54-1.84.81-2.76.13-1.2.26-2.4.4-3.6.01-.91.02-1.82.04-2.72-.59-6.29-2.88-11.86-6.97-16.68ZM1918.55,589.28c.26.59.58,1.16.87,1.75-.67-.32-1.75-.49-1.92-.97-.35-1.03-.32-2.22-.25-3.34.05-.77.38-1.54.64-2.28.3-.82,2.36-.99,3.09-.27,1.69,1.65,2.19,3.8,2.4,6.02.04.39-.59,1.11-1.01,1.21-.74.17-1.57-.02-2.37-.05-.04-1.54-.09-3.09-.15-4.89-1.64.82-1.8,1.73-1.31,2.84ZM1905.96,587.29c1.23-1.36,2.48-2.79,3.99-3.8,1.69-1.14,3.67-1.84,5.52-2.74,1.9-.62,3.79-1.29,5.72-1.82.42-.11.97.25,1.46.39-.3.39-.53.99-.92,1.14-2.07.76-4.17,1.41-6.26,2.11-3.78,1.48-7.2,3.48-9.59,6.96-.17-.1-.33-.2-.5-.3.19-.65.18-1.48.59-1.94ZM1876.36,585.24c-1.29,2.65-2.98,3.72-5.35,3.69-5.17-.07-10.34-.13-15.51-.25-4.23-.09-8.46-.26-12.68-.38-.54-.02-1.09,0-1.63,0-.02-.17-.03-.34-.05-.51,11.65-.7,23.25-2.23,35.23-2.55ZM1831.91,636.97c-.01-1.49-.02-2.98-.04-4.47,1.22-3.44,2.44-6.89,3.66-10.34,3.75,1.98,7.47,4.04,11.27,5.91,1.27.62,2.77.77,4.16,1.14,3.1-.27,5.39-2.03,7.56-4.03,2.54-1.88,5.08-3.77,7.63-5.64.36-.26.77-.44,1.16-.65.12,1.24.12,2.51.39,3.72.24,1.08-.15,1.58-1.07,1.94-4.77,1.87-9.01,4.98-14.09,6.16-2.29.88-4.57,1.79-6.88,2.64-3.25,1.2-6.49,2.45-9.8,3.46-1.22.38-2.63.13-3.96.16ZM1924.38,678.49c-2.27.49-4.68.62-7.01.51-4.37-.21-8.76-.51-13.08-1.13-6.82-.97-13.66-1.99-20.39-3.44-10.83-2.34-21.23-5.99-30.87-11.57-7.18-4.16-13.63-9.17-18.06-16.38-.37-.6-.65-1.25-.97-1.87.31-.51.62-1.03.93-1.54.41-.29.81-.58,1.22-.87,4.36-.76,8.73-1.47,13.08-2.3,6.83-1.3,13.62-2.77,20.46-3.99,2.45-.44,4.98-.06,7.05,1.46,5.69,4.18,12.1,6.75,18.8,8.75,6.93,2.06,14.04,3.1,21.2,3.85,1.04.11,2.09.01,3.37.01.97,3.97,2.07,8.4,3.13,12.84.99,4.11,1.94,8.23,2.91,12.34.44,1.89.14,2.92-1.76,3.34ZM2019.38,583.21c0,.15.02.3.02.44-2.38.24-4.76.49-7.14.72-5.46.5-10.91,1.07-16.37,1.44-2.6.18-5.22-.02-7.83-.07-1.9-.03-2.52-1.67-3.57-2.98,11.68-.61,23.28.37,34.89.45ZM1935.96,584.34c.03-.53.7-1.01,1.08-1.52.27.46.79.93.78,1.39-.04,1.69-.24,3.39-.44,5.08-.04.4-.32.76-.5,1.15-.15-.02-.31-.04-.46-.06-.11-.36-.3-.72-.32-1.08-.09-1.65-.23-3.31-.14-4.96ZM2028.74,640.96c-2.34,4.23-5.34,7.93-8.95,11.12-10.48,9.29-22.97,14.75-36.14,18.93-10.64,3.37-21.57,5.45-32.63,6.8-3.25.4-6.51.67-9.77.93-2.04.16-3.93-.22-5.22-2.05-.09-.87-.41-1.78-.23-2.59,1.7-7.54,3.47-15.06,5.25-22.58.24-1,.66-1.96,1.28-2.89.03.27.05.55.08.82,3.23-.4,6.47-.7,9.68-1.23,6.12-.99,12.09-2.62,17.89-4.82.42-.16.81-.39,1.21-.59,2.02-.91,4.04-1.81,6.06-2.71,3.56-1.62,6.86-3.64,9.67-6.39,2.07-1.16,4.26-.92,6.48-.59,9.91,1.5,19.82,2.94,29.73,4.46,1.67.25,3.33.72,4.94,1.23,1.07.34,1.23,1.13.66,2.16ZM2029.34,632.73c-2.03-.26-4.03-.84-5.99-1.43-4.09-1.25-8.15-2.59-12.21-3.89-5.21-1.71-10.41-3.43-15.62-5.13-.99-.33-1.31-.91-1.04-1.95.26-1,.34-2.05.53-3.26.47.25.87.42,1.22.67,2.62,1.87,5.19,3.81,7.87,5.59,1.24.82,2.69,1.32,4.05,1.96,1.51-.21,3.02-.42,4.53-.63,1.41-.7,2.83-1.41,4.24-2.11,2.82-1.74,5.64-3.48,8.46-5.22.5-.17.99-.34,1.49-.51,2.78,4.2,4.41,8.79,4.56,13.85.05,1.79-.34,2.3-2.09,2.08Z"/>
    <path class="cls-5" d="M1663.19,941.05c.73-.89,1.45-1.78,2.19-2.66,2.58-3.08,4.11-6.59,4.4-10.61,1-4.44-.55-8.23-3.1-11.71-2.19-2.98-4.62-5.66-8.84-5.33-.07,0-.15-.11-.3-.23.13-1.29.25-2.46-1.34-3.35-7.12-3.99-14.66-6.88-22.51-9-4.51-1.22-9.08-2.23-13.61-3.33-2.92-.46-5.83-.98-8.76-1.36-3.38-.43-6.77-.79-10.16-1.04-.67-.05-1.56.39-2.04.9-1.16,1.24-2.12,2.66-3.19,3.99-.88,1.08-1.7,2.28-3.33,2.28-3.7,1-7.4.72-11.08-.1-.27-.06-.51-.3-.76-.46-1.27-.63-.76-1.27.1-1.67,1.04-.48,2.17-.76,3.26-1.16,3.82-1.38,7.64-2.77,11.46-4.16-.66-.19-1.31-.51-1.97-.56-4.88-.35-9.76-.64-14.65-.95h-.91c-4.68.02-9.36-.05-14.03.1-5.42.17-10.83.55-16.25.82-.6.03-1.2,0-1.81-.01-.2.02-.4.04-.6.05-.18.08-.36.2-.55.22-4.3.44-8.59.83-12.88,1.34-.67.08-1.28.71-1.92,1.09.52.53.95,1.32,1.58,1.55,2.16.81,4.4,1.43,6.61,2.12,1.5.47,3,.95,4.5,1.42-2.88.78-5.72,1.12-8.51,1.71-1.75.37-2.92-.22-3.95-1.5-1.1-1.37-2.18-2.76-3.33-4.09-.33-.38-.88-.79-1.35-.81-1.4-.06-2.84-.1-4.21.16-5.62,1.08-11.22,2.28-16.82,3.44-5.13,1.62-10.3,3.14-15.4,4.87-6.22,2.1-12.17,4.83-17.81,8.23-1.5.91-3.18,1.73-2.39,4.02.02.06-.09.16-.21.35-2.69-.06-4.9.95-6.82,3.04-5.24,5.72-7.08,12.04-4.03,19.44,1.21,2.93,3.04,5.43,5.34,7.61.5.48,1.16.95.41,1.75-.49.82-.99,1.64-1.46,2.47-3.1,5.45-4.6,11.23-3.63,17.52,1.59,10.29,7.18,18.12,15.29,24.26,3.4,2.58,7.1,4.77,10.66,7.13,3.44,1.58,6.82,3.28,10.31,4.7,10.5,4.25,21.42,6.99,32.6,8.79,9.52,1.53,19.1,2.35,28.72,2.5,5.64.08,11.3-.06,16.91-.55,8.06-.71,16.14-1.52,24.12-2.85,12.86-2.13,25.31-5.83,37.21-11.23,2.28-1.03,4.47-2.27,6.7-3.41,2.51-1.43,5.01-2.86,7.51-4.28.32-.29.64-.58.96-.87,2.62-2.15,5.23-4.29,7.85-6.43,2.21-2.45,4.61-4.75,6.57-7.39,2.43-3.26,4.33-6.88,4.96-11,.27-.92.54-1.84.81-2.76.13-1.2.26-2.4.4-3.6.01-.91.02-1.82.04-2.72-.59-6.29-2.88-11.86-6.97-16.68ZM1551.14,916.94c.26.59.58,1.16.87,1.75-.67-.32-1.75-.49-1.92-.97-.35-1.03-.32-2.22-.25-3.34.05-.77.38-1.54.64-2.28.3-.82,2.36-.99,3.09-.27,1.69,1.65,2.19,3.8,2.4,6.02.04.39-.59,1.11-1.01,1.21-.74.17-1.57-.02-2.37-.05-.04-1.54-.09-3.09-.15-4.89-1.64.82-1.8,1.73-1.31,2.84ZM1538.56,914.95c1.23-1.36,2.48-2.79,3.99-3.8,1.69-1.14,3.67-1.84,5.52-2.74,1.9-.62,3.79-1.29,5.72-1.82.42-.11.97.25,1.46.39-.3.39-.53.99-.92,1.14-2.07.76-4.17,1.41-6.26,2.11-3.78,1.48-7.2,3.48-9.59,6.96-.17-.1-.33-.2-.5-.3.19-.65.18-1.48.59-1.94ZM1508.95,912.9c-1.29,2.65-2.98,3.72-5.35,3.69-5.17-.07-10.34-.13-15.51-.25-4.23-.09-8.46-.26-12.68-.38-.54-.02-1.09,0-1.63,0-.02-.17-.03-.34-.05-.51,11.65-.7,23.25-2.23,35.23-2.55ZM1464.51,964.63c-.01-1.49-.02-2.98-.04-4.47,1.22-3.44,2.44-6.89,3.66-10.34,3.75,1.98,7.47,4.04,11.27,5.91,1.27.62,2.77.77,4.16,1.14,3.1-.27,5.39-2.03,7.56-4.03,2.54-1.88,5.08-3.77,7.63-5.64.36-.26.77-.44,1.16-.65.12,1.24.12,2.51.39,3.72.24,1.08-.15,1.58-1.07,1.94-4.77,1.87-9.01,4.98-14.09,6.16-2.29.88-4.57,1.79-6.88,2.64-3.25,1.2-6.49,2.45-9.8,3.46-1.22.38-2.63.13-3.96.16ZM1556.97,1006.16c-2.27.49-4.68.62-7.01.51-4.37-.21-8.76-.51-13.08-1.13-6.82-.97-13.66-1.99-20.39-3.44-10.83-2.34-21.23-5.99-30.87-11.57-7.18-4.16-13.63-9.17-18.06-16.38-.37-.6-.65-1.25-.97-1.87.31-.51.62-1.03.93-1.54.41-.29.81-.58,1.22-.87,4.36-.76,8.73-1.47,13.08-2.3,6.83-1.3,13.62-2.77,20.46-3.99,2.45-.44,4.98-.06,7.05,1.46,5.69,4.18,12.1,6.75,18.8,8.75,6.93,2.06,14.04,3.1,21.2,3.85,1.04.11,2.09.01,3.37.01.97,3.97,2.07,8.4,3.13,12.84.99,4.11,1.94,8.23,2.91,12.34.44,1.89.14,2.92-1.76,3.34ZM1651.97,910.87c0,.15.02.3.02.44-2.38.24-4.76.49-7.14.72-5.46.5-10.91,1.07-16.37,1.44-2.6.18-5.22-.02-7.83-.07-1.9-.03-2.52-1.67-3.57-2.98,11.68-.61,23.28.37,34.89.45ZM1568.56,912c.03-.53.7-1.01,1.08-1.52.27.46.79.93.78,1.39-.04,1.69-.24,3.39-.44,5.08-.04.4-.32.76-.5,1.15-.15-.02-.31-.04-.46-.06-.11-.36-.3-.72-.32-1.08-.09-1.65-.23-3.31-.14-4.96ZM1661.34,968.62c-2.34,4.23-5.34,7.93-8.95,11.12-10.48,9.29-22.97,14.75-36.14,18.93-10.64,3.37-21.57,5.45-32.63,6.8-3.25.4-6.51.67-9.77.93-2.04.16-3.93-.22-5.22-2.05-.09-.87-.41-1.78-.23-2.59,1.7-7.54,3.47-15.06,5.25-22.58.24-1,.66-1.96,1.28-2.89.03.27.05.55.08.82,3.23-.4,6.47-.7,9.68-1.23,6.12-.99,12.09-2.62,17.89-4.82.42-.16.81-.39,1.21-.59,2.02-.91,4.04-1.81,6.06-2.71,3.56-1.62,6.86-3.64,9.67-6.39,2.07-1.16,4.26-.92,6.48-.59,9.91,1.5,19.82,2.94,29.73,4.46,1.67.25,3.33.72,4.94,1.23,1.07.34,1.23,1.13.66,2.16ZM1661.93,960.39c-2.03-.26-4.03-.84-5.99-1.43-4.09-1.25-8.15-2.59-12.21-3.89-5.21-1.71-10.41-3.43-15.62-5.13-.99-.33-1.31-.91-1.04-1.95.26-1,.34-2.05.53-3.26.47.25.87.42,1.22.67,2.62,1.87,5.19,3.81,7.87,5.59,1.24.82,2.69,1.32,4.05,1.96,1.51-.21,3.02-.42,4.53-.63,1.41-.7,2.83-1.41,4.24-2.11,2.82-1.74,5.64-3.48,8.46-5.22.5-.17.99-.34,1.49-.51,2.78,4.2,4.41,8.79,4.56,13.85.05,1.79-.34,2.3-2.09,2.08Z"/>
    <path class="cls-5" d="M2460.23,948.8c.73-.89,1.45-1.78,2.19-2.66,2.58-3.08,4.11-6.59,4.4-10.61,1-4.44-.55-8.23-3.1-11.71-2.19-2.98-4.62-5.66-8.84-5.33-.07,0-.15-.11-.3-.23.13-1.29.25-2.46-1.34-3.35-7.12-3.99-14.66-6.88-22.51-9-4.51-1.22-9.08-2.23-13.61-3.33-2.92-.46-5.83-.98-8.76-1.36-3.38-.43-6.77-.79-10.16-1.04-.67-.05-1.56.39-2.04.9-1.16,1.24-2.12,2.66-3.19,3.99-.88,1.08-1.7,2.28-3.33,2.28-3.7,1-7.4.72-11.08-.1-.27-.06-.51-.3-.76-.46-1.27-.63-.76-1.27.1-1.67,1.04-.48,2.17-.76,3.26-1.16,3.82-1.38,7.64-2.77,11.46-4.16-.66-.19-1.31-.51-1.97-.56-4.88-.35-9.76-.64-14.65-.95h-.91c-4.68.02-9.36-.05-14.03.1-5.42.17-10.83.55-16.25.82-.6.03-1.2,0-1.81-.01-.2.02-.4.04-.6.05-.18.08-.36.2-.55.22-4.3.44-8.59.83-12.88,1.34-.67.08-1.28.71-1.92,1.09.52.53.95,1.32,1.58,1.55,2.16.81,4.4,1.43,6.61,2.12,1.5.47,3,.95,4.5,1.42-2.88.78-5.72,1.12-8.51,1.71-1.75.37-2.92-.22-3.95-1.5-1.1-1.37-2.18-2.76-3.33-4.09-.33-.38-.88-.79-1.35-.81-1.4-.06-2.84-.1-4.21.16-5.62,1.08-11.22,2.28-16.82,3.44-5.13,1.62-10.3,3.14-15.4,4.87-6.22,2.1-12.17,4.83-17.81,8.23-1.5.91-3.18,1.73-2.39,4.02.02.06-.09.16-.21.35-2.69-.06-4.9.95-6.82,3.04-5.24,5.72-7.08,12.04-4.03,19.44,1.21,2.93,3.04,5.43,5.34,7.61.5.48,1.16.95.41,1.75-.49.82-.99,1.64-1.46,2.47-3.1,5.45-4.6,11.23-3.63,17.52,1.59,10.29,7.18,18.12,15.29,24.26,3.4,2.58,7.1,4.77,10.66,7.13,3.44,1.58,6.82,3.28,10.31,4.7,10.5,4.25,21.42,6.99,32.6,8.79,9.52,1.53,19.1,2.35,28.72,2.5,5.64.08,11.3-.06,16.91-.55,8.06-.71,16.14-1.52,24.12-2.85,12.86-2.13,25.31-5.83,37.21-11.23,2.28-1.03,4.47-2.27,6.7-3.41,2.51-1.43,5.01-2.86,7.51-4.28.32-.29.64-.58.96-.87,2.62-2.15,5.23-4.29,7.85-6.43,2.21-2.45,4.61-4.75,6.57-7.39,2.43-3.26,4.33-6.88,4.96-11,.27-.92.54-1.84.81-2.76.13-1.2.26-2.4.4-3.6.01-.91.02-1.82.04-2.72-.59-6.29-2.88-11.86-6.97-16.68ZM2348.19,924.69c.26.59.58,1.16.87,1.75-.67-.32-1.75-.49-1.92-.97-.35-1.03-.32-2.22-.25-3.34.05-.77.38-1.54.64-2.28.3-.82,2.36-.99,3.09-.27,1.69,1.65,2.19,3.8,2.4,6.02.04.39-.59,1.11-1.01,1.21-.74.17-1.57-.02-2.37-.05-.04-1.54-.09-3.09-.15-4.89-1.64.82-1.8,1.73-1.31,2.84ZM2335.6,922.7c1.23-1.36,2.48-2.79,3.99-3.8,1.69-1.14,3.67-1.84,5.52-2.74,1.9-.62,3.79-1.29,5.72-1.82.42-.11.97.25,1.46.39-.3.39-.53.99-.92,1.14-2.07.76-4.17,1.41-6.26,2.11-3.78,1.48-7.2,3.48-9.59,6.96-.17-.1-.33-.2-.5-.3.19-.65.18-1.48.59-1.94ZM2306,920.65c-1.29,2.65-2.98,3.72-5.35,3.69-5.17-.07-10.34-.13-15.51-.25-4.23-.09-8.46-.26-12.68-.38-.54-.02-1.09,0-1.63,0-.02-.17-.03-.34-.05-.51,11.65-.7,23.25-2.23,35.23-2.55ZM2261.55,972.38c-.01-1.49-.02-2.98-.04-4.47,1.22-3.44,2.44-6.89,3.66-10.34,3.75,1.98,7.47,4.04,11.27,5.91,1.27.62,2.77.77,4.16,1.14,3.1-.27,5.39-2.03,7.56-4.03,2.54-1.88,5.08-3.77,7.63-5.64.36-.26.77-.44,1.16-.65.12,1.24.12,2.51.39,3.72.24,1.08-.15,1.58-1.07,1.94-4.77,1.87-9.01,4.98-14.09,6.16-2.29.88-4.57,1.79-6.88,2.64-3.25,1.2-6.49,2.45-9.8,3.46-1.22.38-2.63.13-3.96.16ZM2354.02,1013.9c-2.27.49-4.68.62-7.01.51-4.37-.21-8.76-.51-13.08-1.13-6.82-.97-13.66-1.99-20.39-3.44-10.83-2.34-21.23-5.99-30.87-11.57-7.18-4.16-13.63-9.17-18.06-16.38-.37-.6-.65-1.25-.97-1.87.31-.51.62-1.03.93-1.54.41-.29.81-.58,1.22-.87,4.36-.76,8.73-1.47,13.08-2.3,6.83-1.3,13.62-2.77,20.46-3.99,2.45-.44,4.98-.06,7.05,1.46,5.69,4.18,12.1,6.75,18.8,8.75,6.93,2.06,14.04,3.1,21.2,3.85,1.04.11,2.09.01,3.37.01.97,3.97,2.07,8.4,3.13,12.84.99,4.11,1.94,8.23,2.91,12.34.44,1.89.14,2.92-1.76,3.34ZM2449.02,918.62c0,.15.02.3.02.44-2.38.24-4.76.49-7.14.72-5.46.5-10.91,1.07-16.37,1.44-2.6.18-5.22-.02-7.83-.07-1.9-.03-2.52-1.67-3.57-2.98,11.68-.61,23.28.37,34.89.45ZM2365.6,919.75c.03-.53.7-1.01,1.08-1.52.27.46.79.93.78,1.39-.04,1.69-.24,3.39-.44,5.08-.04.4-.32.76-.5,1.15-.15-.02-.31-.04-.46-.06-.11-.36-.3-.72-.32-1.08-.09-1.65-.23-3.31-.14-4.96ZM2458.38,976.37c-2.34,4.23-5.34,7.93-8.95,11.12-10.48,9.29-22.97,14.75-36.14,18.93-10.64,3.37-21.57,5.45-32.63,6.8-3.25.4-6.51.67-9.77.93-2.04.16-3.93-.22-5.22-2.05-.09-.87-.41-1.78-.23-2.59,1.7-7.54,3.47-15.06,5.25-22.58.24-1,.66-1.96,1.28-2.89.03.27.05.55.08.82,3.23-.4,6.47-.7,9.68-1.23,6.12-.99,12.09-2.62,17.89-4.82.42-.16.81-.39,1.21-.59,2.02-.91,4.04-1.81,6.06-2.71,3.56-1.62,6.86-3.64,9.67-6.39,2.07-1.16,4.26-.92,6.48-.59,9.91,1.5,19.82,2.94,29.73,4.46,1.67.25,3.33.72,4.94,1.23,1.07.34,1.23,1.13.66,2.16ZM2458.98,968.14c-2.03-.26-4.03-.84-5.99-1.43-4.09-1.25-8.15-2.59-12.21-3.89-5.21-1.71-10.41-3.43-15.62-5.13-.99-.33-1.31-.91-1.04-1.95.26-1,.34-2.05.53-3.26.47.25.87.42,1.22.67,2.62,1.87,5.19,3.81,7.87,5.59,1.24.82,2.69,1.32,4.05,1.96,1.51-.21,3.02-.42,4.53-.63,1.41-.7,2.83-1.41,4.24-2.11,2.82-1.74,5.64-3.48,8.46-5.22.5-.17.99-.34,1.49-.51,2.78,4.2,4.41,8.79,4.56,13.85.05,1.79-.34,2.3-2.09,2.08Z"/>
  </g>
  <g id="controller">
    <path class="cls-5" d="M1240.25,661.98h-91.47s-.15-19.83-.01-33.91c.15-14.07-11.6-14.14-11.6-14.14,0,0,0,.01-.01.02-.06-.02-.12-.02-.19-.02h-77.49s-11.75.07-11.6,14.14c.14,14.08-.01,33.91-.01,33.91h-91.49c-6.27,0-11.36,5.09-11.36,11.36v119.64c0,6.28,5.09,11.36,11.36,11.36h283.87c6.27,0,11.35-5.08,11.35-11.36v-119.64c0-6.27-5.08-11.36-11.35-11.36ZM1055.58,661.98l.3-33.91s-.65-6.05,3.6-6.05h77.69c4.25,0,3.6,6.05,3.6,6.05l.3,33.91h-85.49ZM1219.28,772.22c-3.6,0-6.52-2.92-6.52-6.52s2.92-6.52,6.52-6.52,6.52,2.92,6.52,6.52-2.92,6.52-6.52,6.52ZM1219.28,748.96c-3.6,0-6.52-2.92-6.52-6.52s2.92-6.52,6.52-6.52,6.52,2.92,6.52,6.52-2.92,6.52-6.52,6.52ZM1219.28,725.7c-3.6,0-6.52-2.92-6.52-6.52s2.92-6.52,6.52-6.52,6.52,2.92,6.52,6.52-2.92,6.52-6.52,6.52ZM1219.28,702.44c-3.6,0-6.52-2.92-6.52-6.52s2.92-6.51,6.52-6.51,6.52,2.91,6.52,6.51-2.92,6.52-6.52,6.52Z"/>
  </g>
  <g id="laptop">
    <g>
      <path class="cls-3" d="M236.17,796.29v-214.17c96.88,0,193.77,0,290.65,0v290.65H236.17c0-19.45,0-38.9,0-58.36,3.51,9.55,10.78,11.92,20.3,11.9,83.73-.19,167.47-.11,251.2-.11,1.04,0,2.08.03,3.11-.01,9.34-.41,15.42-6.69,15.46-15.98.02-3.78.04-7.55,0-11.33-.04-3.44-1.78-5.24-5.19-5.36-2.14-.08-4.29-.01-6.7-.01,0-1.4,0-2.51,0-3.62,0-47.39,0-94.78,0-142.17,0-12.16-7.38-19.59-19.55-19.59-75.71-.01-151.42-.01-227.13.02-2.15,0-4.36.22-6.43.77-8.24,2.2-13.13,9.05-13.13,18.22-.01,47.58,0,95.16,0,142.73,0,1.18,0,2.35,0,3.51-4.42.43-8.87-1.09-11.92,2.89Z"/>
      <path class="cls-5" d="M236.17,796.29c3.05-3.99,7.5-2.47,11.92-2.89,0-1.16,0-2.34,0-3.51,0-47.58,0-95.16,0-142.73,0-9.17,4.89-16.02,13.13-18.22,2.07-.55,4.28-.77,6.43-.77,75.71-.04,151.42-.04,227.13-.02,12.17,0,19.55,7.43,19.55,19.59,0,47.39,0,94.78,0,142.17,0,1.11,0,2.22,0,3.62,2.41,0,4.56-.06,6.7.01,3.41.13,5.15,1.93,5.19,5.36.05,3.78.02,7.55,0,11.33-.04,9.3-6.11,15.57-15.46,15.98-1.04.05-2.08.01-3.11.01-83.73,0-167.47-.08-251.2.11-9.52.02-16.8-2.35-20.3-11.9v-18.13ZM504.86,793.36c0-1.18,0-2.11,0-3.04,0-47.49,0-94.98,0-142.47,0-7.33-2.93-10.23-10.3-10.23-75.53,0-151.06,0-226.59,0-7.55,0-10.42,2.86-10.42,10.4,0,47.39,0,94.79,0,142.18,0,1.01,0,2.02,0,3.16h247.31ZM245.59,803.17c0,1.96,0,3.65,0,5.34.01,6.56,1.65,8.21,8.17,8.21,84.97,0,169.93,0,254.9,0,1.04,0,2.1.08,3.11-.1,2.52-.44,4.56-1.77,4.81-4.45.28-2.95.06-5.95.06-9h-115.49c-.04.89-.08,1.62-.11,2.36-.22,4.25-2.92,7.64-7.1,7.78-8.48.27-16.98.27-25.46,0-4.18-.13-6.88-3.53-7.1-7.78-.04-.73-.07-1.47-.11-2.36h-115.68ZM367.86,803.16c-.46,3.57-.13,4.01,3.15,4.02,6.79.02,13.58.02,20.37,0,3.28-.01,3.61-.43,3.19-4.02h-26.71Z"/>
      <path class="cls-3" d="M504.86,793.36h-247.31c0-1.15,0-2.15,0-3.16,0-47.39,0-94.79,0-142.18,0-7.54,2.87-10.4,10.42-10.4,75.53,0,151.06,0,226.59,0,7.37,0,10.3,2.9,10.3,10.23,0,47.49,0,94.98,0,142.47,0,.93,0,1.86,0,3.04ZM381.08,788.92c36.91,0,73.82,0,110.73,0,5.71,0,8.53-2.73,8.53-8.44.02-43.23.02-86.47,0-129.7,0-5.87-2.79-8.58-8.69-8.58-73.63,0-147.26,0-220.88,0-5.88,0-8.67,2.72-8.67,8.59-.02,43.14.05,86.28-.08,129.42-.02,5.72,3.87,8.83,8.91,8.8,36.72-.18,73.44-.09,110.16-.09Z"/>
      <path class="cls-3" d="M245.59,803.17h115.68c.04.89.08,1.62.11,2.36.22,4.25,2.92,7.65,7.1,7.78,8.48.27,16.98.27,25.46,0,4.18-.13,6.88-3.53,7.1-7.78.04-.74.07-1.47.11-2.36h115.49c0,3.05.22,6.05-.06,9-.26,2.68-2.29,4-4.81,4.45-1.01.18-2.07.1-3.11.1-84.97,0-169.93,0-254.9,0-6.53,0-8.16-1.64-8.17-8.21,0-1.69,0-3.39,0-5.34Z"/>
      <path class="cls-3" d="M367.86,803.16h26.71c.42,3.59.1,4.01-3.19,4.02-6.79.02-13.58.02-20.37,0-3.28-.01-3.61-.44-3.15-4.02Z"/>
      <path class="cls-2" d="M381.08,788.92c-36.72,0-73.44-.08-110.16.09-5.04.02-8.93-3.08-8.91-8.8.13-43.14.06-86.28.08-129.42,0-5.88,2.79-8.59,8.67-8.59,73.63,0,147.26,0,220.88,0,5.89,0,8.68,2.71,8.69,8.58.02,43.23.02,86.47,0,129.7,0,5.71-2.82,8.44-8.53,8.44-36.91,0-73.82,0-110.73,0ZM381.14,648.41c-36.44,0-72.89.03-109.33-.06-2.74,0-3.48.76-3.47,3.48.08,42.49.08,84.97,0,127.46,0,2.72.72,3.48,3.46,3.48,72.89-.07,145.77-.08,218.66,0,2.87,0,3.63-.74,3.62-3.62-.09-42.39-.09-84.78,0-127.17,0-2.85-.71-3.65-3.61-3.64-36.44.1-72.89.07-109.33.07Z"/>
      <path class="cls-3" d="M381.14,648.41c36.44,0,72.89.03,109.33-.07,2.9,0,3.62.79,3.61,3.64-.09,42.39-.09,84.78,0,127.17,0,2.88-.75,3.62-3.62,3.62-72.89-.08-145.77-.08-218.66,0-2.75,0-3.47-.76-3.46-3.48.08-42.49.08-84.97,0-127.46,0-2.72.73-3.49,3.47-3.48,36.44.09,72.89.06,109.33.06Z"/>
    </g>
  </g>
  <g id="LAN">
    <path class="cls-5" d="M663.55,717.45h6.83c.35,0,.63.28.63.63v18.56c0,.45-.36.81-.81.81h-6.65c-.35,0-.63-.28-.63-.63v-18.74c0-.35.28-.63.63-.63Z" transform="translate(-60.49 1394.41) rotate(-90)"/>
    <path class="cls-5" d="M693.73,717.45h6.83c.35,0,.63.28.63.63v18.56c0,.45-.36.81-.81.81h-6.65c-.35,0-.63-.28-.63-.63v-18.74c0-.35.28-.63.63-.63Z" transform="translate(-30.31 1424.6) rotate(-90)"/>
    <path class="cls-5" d="M724.54,717.45h6.83c.35,0,.63.28.63.63v18.56c0,.45-.36.81-.81.81h-6.65c-.35,0-.63-.28-.63-.63v-18.74c0-.35.28-.63.63-.63Z" transform="translate(.5 1455.41) rotate(-90)"/>
    <path class="cls-5" d="M754.49,717.45h6.83c.35,0,.63.28.63.63v18.56c0,.45-.36.81-.81.81h-6.65c-.35,0-.63-.28-.63-.63v-18.74c0-.35.28-.63.63-.63Z" transform="translate(30.45 1485.36) rotate(-90)"/>
    <path class="cls-5" d="M784.67,717.45h6.83c.35,0,.63.28.63.63v18.56c0,.45-.36.81-.81.81h-6.65c-.35,0-.63-.28-.63-.63v-18.74c0-.35.28-.63.63-.63Z" transform="translate(60.63 1515.54) rotate(-90)"/>
    <path class="cls-5" d="M815.48,717.45h6.83c.35,0,.63.28.63.63v18.56c0,.45-.36.81-.81.81h-6.65c-.35,0-.63-.28-.63-.63v-18.74c0-.35.28-.63.63-.63Z" transform="translate(91.44 1546.35) rotate(-90)"/>
    <path class="cls-5" d="M573.52,717.45h6.83c.35,0,.63.28.63.63v18.56c0,.45-.36.81-.81.81h-6.65c-.35,0-.63-.28-.63-.63v-18.74c0-.35.28-.63.63-.63Z" transform="translate(-150.52 1304.39) rotate(-90)"/>
    <path class="cls-5" d="M603.7,717.45h6.83c.35,0,.63.28.63.63v18.56c0,.45-.36.81-.81.81h-6.65c-.35,0-.63-.28-.63-.63v-18.74c0-.35.28-.63.63-.63Z" transform="translate(-120.34 1334.57) rotate(-90)"/>
    <path class="cls-5" d="M634.52,717.45h6.83c.35,0,.63.28.63.63v18.56c0,.45-.36.81-.81.81h-6.65c-.35,0-.63-.28-.63-.63v-18.74c0-.35.28-.63.63-.63Z" transform="translate(-89.53 1365.38) rotate(-90)"/>
    <path class="cls-5" d="M844.45,717.45h6.83c.35,0,.63.28.63.63v18.56c0,.45-.36.81-.81.81h-6.65c-.35,0-.63-.28-.63-.63v-18.74c0-.35.28-.63.63-.63Z" transform="translate(120.41 1575.32) rotate(-90)"/>
    <path class="cls-5" d="M874.63,717.45h6.83c.35,0,.63.28.63.63v18.56c0,.45-.36.81-.81.81h-6.65c-.35,0-.63-.28-.63-.63v-18.74c0-.35.28-.63.63-.63Z" transform="translate(150.59 1605.5) rotate(-90)"/>
    <path class="cls-5" d="M900.05,737.3h5.12v-1.64h11.4v-3.06h.86v-10.29h-.86v-3.03h-11.4v-1.54h-5.12v8.76h-1.85v-7.62h-.83v7.62h-1.71v-7.22h-.84v7.22h-1.68v-5.69h-.83v5.69h-1.68v-4.36h-.83v4.36h-1.56v-3.09h-2.78v8.53h2.78v-3.4h1.56v4.35h.83v-4.35h1.68v6.37h.83v-6.37h1.68v7.21h.84v-7.21h1.71v7.62h.83v-7.62h1.85v8.76ZM915.93,732.6v2.64h-10.76v-5.67h2.86v3.03h7.9ZM905.17,725.34v-5.64h10.76v2.61h-7.91v3.03h-2.85ZM905.17,725.76h3.5v-3.03h8.11v9.45h-8.1v-3.02h-3.51v-3.4Z"/>
    <path class="cls-5" d="M554.82,717.67h-5.12v1.64h-11.4v3.06h-.86v10.29h.86v3.03h11.4v1.54h5.12v-8.76h1.85v7.62h.83v-7.62h1.71v7.22h.84v-7.22h1.68v5.69h.83v-5.69h1.68v4.36h.83v-4.36h1.56v3.09h2.78v-8.53h-2.78v3.4h-1.56v-4.35h-.83v4.35h-1.68v-6.37h-.83v6.37h-1.68v-7.21h-.84v7.21h-1.71v-7.62h-.83v7.62h-1.85v-8.76ZM538.94,722.37v-2.64h10.76v5.67h-2.86v-3.03h-7.9ZM549.7,729.63v5.64h-10.76v-2.61h7.91v-3.03h2.85ZM549.7,729.21h-3.5v3.03h-8.11v-9.45h8.1v3.02h3.51v3.4Z"/>
  </g>
  <g id="WLAN">
    <g>
      <path class="cls-5" d="M915.99,635.48c-4.67,5.15-7.86,11.09-9.57,17.82-1.05,4.14-1.44,8.36-1.17,12.63.11,1.72,1.46,2.99,3.09,2.98,1.76-.02,3.04-1.28,3.11-3.1.09-2.3.04-4.61.29-6.9.56-5.1,2.31-9.82,5.05-14.17,3.44-5.48,8.01-9.76,13.74-12.78,4.63-2.45,9.58-3.75,14.8-4.02,1.73-.09,2.91-.95,3.23-2.35.49-2.1-1-4.03-3.14-3.87-2.44.18-4.89.44-7.28.92-5.82,1.16-11.12,3.59-15.86,7.15-2.26,1.69-4.29,3.69-6.42,5.54.05.05.09.1.14.15Z"/>
      <path class="cls-5" d="M924.98,642.8c-6.11,7.09-8.75,14.78-8.04,23.59.11,1.31.71,2.27,1.93,2.79,1.15.49,2.22.3,3.17-.45.85-.67,1.18-1.6,1.11-2.68-.17-2.33-.1-4.64.33-6.95.62-3.3,1.88-6.33,3.77-9.09,2.56-3.75,5.95-6.55,10.09-8.41,2.53-1.13,5.2-1.81,7.99-1.98.67-.04,1.35-.05,2.02-.11,1.84-.16,3.04-1.49,2.97-3.24-.07-1.7-1.45-3.01-3.25-2.98-7.05.1-13.38,2.25-18.9,6.67-1.25,1-2.4,2.13-3.19,2.84Z"/>
      <path class="cls-5" d="M933.09,651.26c-3.85,4.46-5.39,9.91-4.24,16.09.33,1.79,1.9,2.88,3.64,2.59,1.65-.27,2.79-1.86,2.48-3.63-.42-2.42-.36-4.78.53-7.08,1.19-3.12,3.3-5.41,6.31-6.85,2.14-1.02,4.38-1.31,6.72-1.15,1.98.14,3.41-1.12,3.48-2.99.07-1.78-1.31-3.09-3.24-3.22-2.47-.17-4.88.06-7.25.8-3.18,1-5.88,2.74-8.43,5.44Z"/>
    </g>
    <g>
      <path class="cls-5" d="M540.87,606.94c4.67,5.15,7.86,11.09,9.57,17.82,1.05,4.14,1.44,8.36,1.17,12.63-.11,1.72-1.46,2.99-3.09,2.98-1.76-.02-3.04-1.28-3.11-3.1-.09-2.3-.04-4.61-.29-6.9-.56-5.1-2.31-9.82-5.05-14.17-3.44-5.48-8.01-9.76-13.74-12.78-4.63-2.45-9.58-3.75-14.8-4.02-1.73-.09-2.91-.95-3.23-2.35-.49-2.1,1-4.03,3.14-3.87,2.44.18,4.89.44,7.28.92,5.82,1.16,11.12,3.59,15.86,7.15,2.26,1.69,4.29,3.69,6.42,5.54-.05.05-.09.1-.14.15Z"/>
      <path class="cls-5" d="M531.89,614.26c6.11,7.09,8.75,14.78,8.04,23.59-.11,1.31-.71,2.27-1.93,2.79-1.15.49-2.22.3-3.17-.45-.85-.67-1.18-1.6-1.11-2.68.17-2.33.1-4.64-.33-6.95-.62-3.3-1.88-6.33-3.77-9.09-2.56-3.75-5.95-6.55-10.09-8.41-2.53-1.13-5.2-1.81-7.99-1.98-.67-.04-1.35-.05-2.02-.11-1.84-.16-3.04-1.49-2.97-3.24.07-1.7,1.45-3.01,3.25-2.98,7.05.1,13.38,2.25,18.9,6.67,1.25,1,2.4,2.13,3.19,2.84Z"/>
      <path class="cls-5" d="M523.78,622.72c3.85,4.46,5.39,9.91,4.24,16.09-.33,1.79-1.9,2.88-3.64,2.59-1.65-.27-2.79-1.86-2.48-3.63.42-2.42.36-4.78-.53-7.08-1.19-3.12-3.3-5.41-6.31-6.85-2.14-1.02-4.38-1.31-6.72-1.15-1.98.14-3.41-1.12-3.48-2.99-.07-1.78,1.31-3.09,3.24-3.22,2.47-.17,4.88.06,7.25.8,3.18,1,5.88,2.74,8.43,5.44Z"/>
    </g>
  </g>
  <g id="cables">
    <path class="cls-6" d="M1275.37,695.66c2.46-.02,42.49-.51,68.3-12.74,13.98-6.62,28.44-17.19,28.44-17.19,3.7-2.7,5.99-4.58,7.7-5.93,17.49-13.78,37.57-22.22,41.19-23.7,27.13-11.15,54.43-11.82,67.26-11.56l312.19-.19"/>
    <path class="cls-6" d="M2572.34,624.36l-307.72.26c-12.64-.35-39.56.54-66.3,15.49-3.57,1.99-23.36,13.31-40.6,31.77-1.69,1.81-3.95,4.32-7.59,7.94,0,0-14.26,14.15-28.04,23.03-25.43,16.39-64.9,17.05-67.32,17.08l-778.96-.75"/>
    <path class="cls-6" d="M1276.7,763.81c4.04-.18,26.95-.81,45.33,16.89,12.42,11.95,16.02,28.1,18.22,37.33,1.19,5,.88,5.49,4,28.89,2.13,15.96,3.2,23.95,4,28.44,1.86,10.45,6.11,34.29,19.56,50.67,19.64,23.93,53.46,25.29,63.56,25.33"/>
    <line class="cls-6" x1="1275.37" y1="742.27" x2="1760.26" y2="742.27"/>
    <path class="cls-6" d="M1756.7,742.32c4.43-.2,29.54-.92,49.68,19.21,13.61,13.59,17.55,31.96,19.97,42.45,1.31,5.69.96,6.25,4.38,32.85,2.34,18.15,3.5,27.23,4.38,32.35,2.04,11.88,6.7,38.99,21.43,57.62,21.52,27.21,58.59,28.76,69.65,28.81h314.06"/>
  </g>
  <g id="fixtures">
    <g>
      <ellipse class="cls-5" cx="1558.92" cy="800.23" rx="15.75" ry="5.93"/>
      <rect class="cls-5" x="1543.17" y="779.38" width="31.5" height="20.73"/>
      <rect class="cls-4" x="1543.17" y="219.38" width="31.5" height="560"/>
      <ellipse class="cls-4" cx="1558.92" cy="219.38" rx="15.75" ry="5.93"/>
      <ellipse class="cls-4" cx="1558.92" cy="779.38" rx="15.75" ry="5.93"/>
    </g>
    <g>
      <ellipse class="cls-5" cx="2355.96" cy="804.16" rx="15.75" ry="5.93"/>
      <rect class="cls-5" x="2340.21" y="783.31" width="31.5" height="20.73"/>
      <rect class="cls-1" x="2340.21" y="224" width="31.5" height="560"/>
      <ellipse class="cls-1" cx="2355.96" cy="224" rx="15.75" ry="5.93"/>
      <ellipse class="cls-1" cx="2355.96" cy="784" rx="15.75" ry="5.93"/>
    </g>
    <g>
      <ellipse class="cls-5" cx="1930.32" cy="615.74" rx="15.75" ry="5.93"/>
      <rect class="cls-5" x="1914.57" y="603.89" width="31.5" height="12.22"/>
      <rect class="cls-2" x="1914.57" y="43.89" width="31.5" height="560"/>
      <ellipse class="cls-2" cx="1930.32" cy="43.89" rx="15.75" ry="5.93"/>
      <ellipse class="cls-2" cx="1930.32" cy="603.89" rx="15.75" ry="5.93"/>
    </g>
    <g>
      <ellipse class="cls-5" cx="2710.25" cy="613.66" rx="15.75" ry="5.93"/>
      <rect class="cls-5" x="2694.5" y="601.81" width="31.5" height="12.22"/>
      <rect class="cls-2" x="2694.5" y="41.81" width="31.5" height="560"/>
      <ellipse class="cls-2" cx="2710.25" cy="41.81" rx="15.75" ry="5.93"/>
      <ellipse class="cls-2" cx="2710.25" cy="601.81" rx="15.75" ry="5.93"/>
    </g>
  </g>
  <g id="labels">
    <use width="45.72" height="26.28" transform="translate(1572.89 828.26) rotate(90) scale(.9 1)" xlink:href="#Arrow_26"/>
    <use width="45.72" height="26.28" transform="translate(2369.1 833.58) rotate(90) scale(.9 1)" xlink:href="#Arrow_26"/>
    <g>
      <path class="cls-5" d="M682.76,778.08l5.76-16.56h3.22l5.76,16.56h-3.58l-1.01-3.14h-5.54l-1.01,3.14h-3.6ZM688.26,772.1h3.74l-1.87-5.83-1.87,5.83Z"/>
      <path class="cls-5" d="M708.09,778.08l-2.98-6.5h-2.69v6.5h-3.36v-16.56h5.93c3.82,0,6.19,1.7,6.19,5.06,0,2.23-1.03,3.7-2.83,4.44l3.43,7.06h-3.7ZM704.68,768.74c1.99,0,3.14-.43,3.14-2.16s-1.15-2.21-3.14-2.21h-2.26v4.37h2.26Z"/>
      <path class="cls-5" d="M724.67,761.51v2.86h-4.56v13.71h-3.36v-13.71h-4.56v-2.86h12.48Z"/>
      <path class="cls-5" d="M724.86,769.8h6.22v2.69h-6.22v-2.69Z"/>
      <path class="cls-5" d="M745.89,761.51v16.56h-2.81l-6.46-10.25v10.25h-3.19v-16.56h2.78l6.48,10.39v-10.39h3.19Z"/>
      <path class="cls-5" d="M759.49,761.51v2.86h-6.96v3.72h6.24v2.83h-6.24v4.32h6.96v2.83h-10.32v-16.56h10.32Z"/>
      <path class="cls-5" d="M772.86,761.51v2.86h-4.56v13.71h-3.36v-13.71h-4.56v-2.86h12.48Z"/>
      <path class="cls-5" d="M708.14,798.26c-.53-.62-1.06-.96-2.35-.96-.79,0-1.51.24-1.51.94s.65.98,1.92,1.18c2.95.46,4.44,1.58,4.44,3.96s-1.61,3.72-4.7,3.72c-2.45,0-3.94-.6-4.97-1.99l2.35-1.68c.48.65,1.08,1.03,2.57,1.03,1.06,0,1.7-.36,1.7-.98,0-.74-.53-.98-2.04-1.22-2.5-.41-4.32-1.46-4.32-3.89,0-2.28,1.63-3.7,4.63-3.7,1.97,0,3.6.46,4.54,1.99l-2.26,1.61Z"/>
      <path class="cls-5" d="M711.38,806.88l5.76-16.56h3.22l5.76,16.56h-3.58l-1.01-3.14h-5.54l-1.01,3.14h-3.6ZM716.88,800.9h3.74l-1.87-5.83-1.87,5.83Z"/>
      <path class="cls-5" d="M735.89,795.45c-.31-1.56-1.22-2.52-2.86-2.52-1.94,0-2.98,1.32-2.98,4.49v2.35c0,3.07,1.03,4.49,2.98,4.49,1.68,0,2.5-.84,2.86-2.52h3.19c-.55,3.72-2.64,5.35-6.05,5.35-3.72,0-6.34-2.26-6.34-7.32v-2.35c0-5.11,2.62-7.32,6.34-7.32,3.29,0,5.52,1.73,6.07,5.35h-3.22Z"/>
      <path class="cls-5" d="M753.91,790.31v16.56h-2.81l-6.46-10.25v10.25h-3.19v-16.56h2.78l6.48,10.39v-10.39h3.19Z"/>
    </g>
  </g>
</svg>